HIERARCHY
ROOT Root
{
  OFFSET 0.0 0.0 0.0
  CHANNELS 6 Xposition Yposition Zposition Zrotation Yrotation Xrotation
  JOINT Hips
  {
    OFFSET 0.0 100.0 0.0
    CHANNELS 6 Xposition Yposition Zposition Zrotation Yrotation Xrotation
    JOINT Spine1
    {
      OFFSET 5.003913 -0.037094 -0.013727
      CHANNELS 3 Zrotation Yrotation Xrotation
      JOINT Spine2
      {
        OFFSET 7.125363 -1e-06 0.0
        CHANNELS 3 Zrotation Yrotation Xrotation
        JOINT Chest
        {
          OFFSET 7.594027 1e-06 0.0
          CHANNELS 3 Zrotation Yrotation Xrotation
          JOINT Neck1
          {
            OFFSET 26.313086 -0.460272 -0.181672
            CHANNELS 3 Zrotation Yrotation Xrotation
            JOINT Neck2
            {
              OFFSET 8.045911 0.0 0.0
              CHANNELS 3 Zrotation Yrotation Xrotation
              JOINT Head
              {
                OFFSET 6.432774 0.0 0.0
                CHANNELS 3 Zrotation Yrotation Xrotation
                JOINT HeadEnd
                {
                  OFFSET 16.169773 0.06451 0.00362
                  CHANNELS 3 Zrotation Yrotation Xrotation
                }
                JOINT Jaw
                {
                  OFFSET 0.108741 3.12938 0.002639
                  CHANNELS 3 Zrotation Yrotation Xrotation
                }
                JOINT LeftEye
                {
                  OFFSET 4.45173 8.166359 3.206392
                  CHANNELS 3 Zrotation Yrotation Xrotation
                }
                JOINT RightEye
                {
                  OFFSET 4.436895 8.135758 -3.222429
                  CHANNELS 3 Zrotation Yrotation Xrotation
                }
              }
            }
          }
          JOINT LeftShoulder
          {
            OFFSET 23.218927 5.195579 1.621656
            CHANNELS 3 Zrotation Yrotation Xrotation
            JOINT LeftArm
            {
              OFFSET 15.902118 2e-06 -2e-06
              CHANNELS 3 Zrotation Yrotation Xrotation
              JOINT LeftForeArm
              {
                OFFSET 28.739307 0.0 -1e-06
                CHANNELS 3 Zrotation Yrotation Xrotation
                JOINT LeftHand
                {
                  OFFSET 27.093981 -4e-06 0.0
                  CHANNELS 3 Zrotation Yrotation Xrotation
                  JOINT LeftHandThumb1
                  {
                    OFFSET 2.276781 3.380274 0.83384
                    CHANNELS 3 Zrotation Yrotation Xrotation
                    JOINT LeftHandThumb2
                    {
                      OFFSET 4.705309 -1e-06 -1e-06
                      CHANNELS 3 Zrotation Yrotation Xrotation
                      JOINT LeftHandThumb3
                      {
                        OFFSET 2.798515 0.0 3e-06
                        CHANNELS 3 Zrotation Yrotation Xrotation
                        JOINT LeftHandThumbEnd
                        {
                          OFFSET 3.180793 4e-06 -4e-06
                          CHANNELS 3 Zrotation Yrotation Xrotation
                        }
                      }
                    }
                  }
                  JOINT LeftHandIndex1
                  {
                    OFFSET 3.247786 2.352677 0.137192
                    CHANNELS 3 Zrotation Yrotation Xrotation
                    JOINT LeftHandIndex2
                    {
                      OFFSET 6.367095 1e-06 0.0
                      CHANNELS 3 Zrotation Yrotation Xrotation
                      JOINT LeftHandIndex3
                      {
                        OFFSET 3.662364 0.0 0.0
                        CHANNELS 3 Zrotation Yrotation Xrotation
                        JOINT LeftHandIndex4
                        {
                          OFFSET 2.329242 4e-06 -4e-06
                          CHANNELS 3 Zrotation Yrotation Xrotation
                          JOINT LeftHandIndexEnd
                          {
                            OFFSET 2.767823 1e-06 0.0
                            CHANNELS 3 Zrotation Yrotation Xrotation
                          }
                        }
                      }
                    }
                  }
                  JOINT LeftHandMiddle1
                  {
                    OFFSET 3.163612 0.945023 -0.406112
                    CHANNELS 3 Zrotation Yrotation Xrotation
                    JOINT LeftHandMiddle2
                    {
                      OFFSET 6.276789 3e-06 0.0
                      CHANNELS 3 Zrotation Yrotation Xrotation
                      JOINT LeftHandMiddle3
                      {
                        OFFSET 4.35652 -1e-06 4e-06
                        CHANNELS 3 Zrotation Yrotation Xrotation
                        JOINT LeftHandMiddle4
                        {
                          OFFSET 2.996877 0.0 8e-06
                          CHANNELS 3 Zrotation Yrotation Xrotation
                          JOINT LeftHandMiddleEnd
                          {
                            OFFSET 2.323256 3e-06 -4e-06
                            CHANNELS 3 Zrotation Yrotation Xrotation
                          }
                        }
                      }
                    }
                  }
                  JOINT LeftHandRing1
                  {
                    OFFSET 2.882606 -0.309162 0.107445
                    CHANNELS 3 Zrotation Yrotation Xrotation
                    JOINT LeftHandRing2
                    {
                      OFFSET 6.033198 0.0 4e-06
                      CHANNELS 3 Zrotation Yrotation Xrotation
                      JOINT LeftHandRing3
                      {
                        OFFSET 4.350578 3e-06 0.0
                        CHANNELS 3 Zrotation Yrotation Xrotation
                        JOINT LeftHandRing4
                        {
                          OFFSET 2.651321 2e-06 -7e-06
                          CHANNELS 3 Zrotation Yrotation Xrotation
                          JOINT LeftHandRingEnd
                          {
                            OFFSET 1.937663 1e-06 -4e-06
                            CHANNELS 3 Zrotation Yrotation Xrotation
                          }
                        }
                      }
                    }
                  }
                  JOINT LeftHandPinky1
                  {
                    OFFSET 2.865315 -1.525436 0.575687
                    CHANNELS 3 Zrotation Yrotation Xrotation
                    JOINT LeftHandPinky2
                    {
                      OFFSET 5.54936 1e-06 -8e-06
                      CHANNELS 3 Zrotation Yrotation Xrotation
                      JOINT LeftHandPinky3
                      {
                        OFFSET 3.070974 0.0 -4e-06
                        CHANNELS 3 Zrotation Yrotation Xrotation
                        JOINT LeftHandPinky4
                        {
                          OFFSET 1.549672 1e-06 0.0
                          CHANNELS 3 Zrotation Yrotation Xrotation
                          JOINT LeftHandPinkyEnd
                          {
                            OFFSET 1.952123 0.0 0.0
                            CHANNELS 3 Zrotation Yrotation Xrotation
                          }
                        }
                      }
                    }
                  }
                }
              }
            }
          }
          JOINT RightShoulder
          {
            OFFSET 23.161716 5.296122 -1.380114
            CHANNELS 3 Zrotation Yrotation Xrotation
            JOINT RightArm
            {
              OFFSET -16.027195 -2e-06 1.1e-05
              CHANNELS 3 Zrotation Yrotation Xrotation
              JOINT RightForeArm
              {
                OFFSET -28.736639 4e-06 2e-06
                CHANNELS 3 Zrotation Yrotation Xrotation
                JOINT RightHand
                {
                  OFFSET -27.133619 6e-06 0.0
                  CHANNELS 3 Zrotation Yrotation Xrotation
                  JOINT RightHandThumb1
                  {
                    OFFSET -2.274328 -3.351035 -0.83067
                    CHANNELS 3 Zrotation Yrotation Xrotation
                    JOINT RightHandThumb2
                    {
                      OFFSET -4.703594 -3e-06 2e-06
                      CHANNELS 3 Zrotation Yrotation Xrotation
                      JOINT RightHandThumb3
                      {
                        OFFSET -2.794935 -4e-06 -3e-06
                        CHANNELS 3 Zrotation Yrotation Xrotation
                        JOINT RightHandThumbEnd
                        {
                          OFFSET -3.183852 4e-06 1e-06
                          CHANNELS 3 Zrotation Yrotation Xrotation
                        }
                      }
                    }
                  }
                  JOINT RightHandIndex1
                  {
                    OFFSET -3.253496 -2.33755 -0.127667
                    CHANNELS 3 Zrotation Yrotation Xrotation
                    JOINT RightHandIndex2
                    {
                      OFFSET -6.344434 0.0 0.0
                      CHANNELS 3 Zrotation Yrotation Xrotation
                      JOINT RightHandIndex3
                      {
                        OFFSET -3.654871 0.0 -8e-06
                        CHANNELS 3 Zrotation Yrotation Xrotation
                        JOINT RightHandIndex4
                        {
                          OFFSET -2.327586 -1e-06 0.0
                          CHANNELS 3 Zrotation Yrotation Xrotation
                          JOINT RightHandIndexEnd
                          {
                            OFFSET -2.770001 3e-06 8e-06
                            CHANNELS 3 Zrotation Yrotation Xrotation
                          }
                        }
                      }
                    }
                  }
                  JOINT RightHandMiddle1
                  {
                    OFFSET -3.168223 -0.944764 0.411762
                    CHANNELS 3 Zrotation Yrotation Xrotation
                    JOINT RightHandMiddle2
                    {
                      OFFSET -6.266691 -1e-06 -4e-06
                      CHANNELS 3 Zrotation Yrotation Xrotation
                      JOINT RightHandMiddle3
                      {
                        OFFSET -4.348901 0.0 0.0
                        CHANNELS 3 Zrotation Yrotation Xrotation
                        JOINT RightHandMiddle4
                        {
                          OFFSET -3.00024 2e-06 -4e-06
                          CHANNELS 3 Zrotation Yrotation Xrotation
                          JOINT RightHandMiddleEnd
                          {
                            OFFSET -2.321477 -4e-06 -4e-06
                            CHANNELS 3 Zrotation Yrotation Xrotation
                          }
                        }
                      }
                    }
                  }
                  JOINT RightHandRing1
                  {
                    OFFSET -2.885654 0.293261 -0.119232
                    CHANNELS 3 Zrotation Yrotation Xrotation
                    JOINT RightHandRing2
                    {
                      OFFSET -6.032835 -1e-06 -4e-06
                      CHANNELS 3 Zrotation Yrotation Xrotation
                      JOINT RightHandRing3
                      {
                        OFFSET -4.33881 0.0 -4e-06
                        CHANNELS 3 Zrotation Yrotation Xrotation
                        JOINT RightHandRing4
                        {
                          OFFSET -2.654903 -4e-06 -4e-06
                          CHANNELS 3 Zrotation Yrotation Xrotation
                          JOINT RightHandRingEnd
                          {
                            OFFSET -1.935122 0.0 4e-06
                            CHANNELS 3 Zrotation Yrotation Xrotation
                          }
                        }
                      }
                    }
                  }
                  JOINT RightHandPinky1
                  {
                    OFFSET -2.866241 1.503904 -0.60527
                    CHANNELS 3 Zrotation Yrotation Xrotation
                    JOINT RightHandPinky2
                    {
                      OFFSET -5.553177 -2e-06 0.0
                      CHANNELS 3 Zrotation Yrotation Xrotation
                      JOINT RightHandPinky3
                      {
                        OFFSET -3.062664 -1e-06 -4e-06
                        CHANNELS 3 Zrotation Yrotation Xrotation
                        JOINT RightHandPinky4
                        {
                          OFFSET -1.546529 2e-06 4e-06
                          CHANNELS 3 Zrotation Yrotation Xrotation
                          JOINT RightHandPinkyEnd
                          {
                            OFFSET -1.952341 0.0 -4e-06
                            CHANNELS 3 Zrotation Yrotation Xrotation
                          }
                        }
                      }
                    }
                  }
                }
              }
            }
          }
        }
      }
    }
    JOINT LeftLeg
    {
      OFFSET -8.443107 2.567604 10.043214
      CHANNELS 3 Zrotation Yrotation Xrotation
      JOINT LeftShin
      {
        OFFSET 43.229198 1e-06 -1e-06
        CHANNELS 3 Zrotation Yrotation Xrotation
        JOINT LeftFoot
        {
          OFFSET 42.298611 1e-06 1e-06
          CHANNELS 3 Zrotation Yrotation Xrotation
          JOINT LeftToeBase
          {
            OFFSET 14.165858 1e-06 0.0
            CHANNELS 3 Zrotation Yrotation Xrotation
            JOINT LeftToeEnd
            {
              OFFSET 6.7141 -0.234461 0.0
              CHANNELS 3 Zrotation Yrotation Xrotation
            }
          }
        }
      }
    }
    JOINT RightLeg
    {
      OFFSET -8.303923 2.592729 -10.047278
      CHANNELS 3 Zrotation Yrotation Xrotation
      JOINT RightShin
      {
        OFFSET -43.369682 0.0 1e-06
        CHANNELS 3 Zrotation Yrotation Xrotation
        JOINT RightFoot
        {
          OFFSET -42.260784 4e-06 2e-06
          CHANNELS 3 Zrotation Yrotation Xrotation
          JOINT RightToeBase
          {
            OFFSET -14.222245 -2e-06 -1e-06
            CHANNELS 3 Zrotation Yrotation Xrotation
            JOINT RightToeEnd
            {
              OFFSET -6.660062 0.232574 -2e-06
              CHANNELS 3 Zrotation Yrotation Xrotation
            }
          }
        }
      }
    }
  }
}
MOTION
Frames: 4
Frame Time: 0.03333333333333333
0.0 0.0 0.0 0.0 -0.0 0.0 -5.665205 46.60091 198.323151 85.16465 -49.915348 99.783623 10.08995 1.883398 -1.230919 -4.305054 -0.139367 -3.429578 28.379612 5.791756 -3.315254 17.563253 -3.055684 3.379059 -2.64085 -1.251232 1.18794 -35.622513 -2.264331 2.876122 6e-06 -0.0 0.0 -0.180106 -0.099951 0.092747 -0.241239 -0.183691 0.134208 -0.198088 -0.023489 0.057477 -7.486379 -63.515759 10.245612 79.005951 -13.991905 -54.259438 19.934742 0.572531 0.352547 39.28754 62.90778 38.959534 17.636627 -26.322721 52.411179 -19.466658 -14.395597 29.410381 -0.0 -8.774821 -2e-06 16.435457 -18.663103 5.895677 -0.609776 -1.795653 -3.889326 -4.807087 -11.046805 -2.937849 5e-06 -20.976011 -1e-06 -5.019968 -25.033552 -4.031883 6e-06 -1e-06 -0.0 -10.634531 -5.686968 -3.565587 10.573272 -17.922945 -3.1139 3e-06 -13.821205 1e-06 -0.501778 -31.181494 -4.027012 -11.01063 -59.616692 6.753679 -13.982711 -7.150195 -2.875041 13.772725 -8.401489 -3.218241 0.347735 -34.21154 0.771655 -0.963028 -17.733362 2.62102 -0.0 -0.0 -1e-06 -17.346415 -20.095209 -4.201782 21.757555 -1.638376 3.866428 1e-06 -6.338821 1e-06 -1.697588 -22.591734 -6.194004 0.0 -5e-06 -2e-06 -161.739899 -81.735512 -9.015017 86.872971 -24.237196 -42.856445 22.816172 -0.49376 0.396056 70.608818 61.011005 77.96254 22.182125 -20.375896 49.933315 -16.701807 -16.74353 28.476528 -3e-06 -12.690601 -2e-06 16.300043 -18.105772 2.383962 -0.10592 -1.513854 -4.275881 -5.039042 -5.612874 -2.953555 5e-06 -11.02052 -1e-06 -6.111299 -15.895334 -3.84047 -0.0 1e-06 -0.0 -10.283373 -5.680289 -4.341839 11.028295 -11.302404 -2.372629 -1.384269 -14.238583 -6.32012 -0.62544 -26.924187 -3.8276 -3.855122 -49.024975 -4.579231 -13.708527 -7.363474 -3.720939 18.141148 -14.052739 -3.242672 5e-06 -18.787271 1e-06 -0.429712 -8.456043 2.555504 0.0 -0.0 0.0 -15.923538 -20.094484 -5.473584 30.41921 -7.190824 1.735932 2e-06 -8.162925 1e-06 -1.861905 -22.861471 -6.167938 0.0 -3e-06 -1e-06 156.239426 -1.571221 5.981799 73.885468 -1.405731 0.25789 -38.770042 1.720334 15.316796 -30.107533 1.946838 1.072984 -0.999999 0.0 -0.0 -72.233406 -6.618767 6.495781 129.057098 0.281775 0.301851 -57.484512 11.340916 7.633391 -32.993866 0.874952 1.202276 -1.000002 -0.0 0.0 
0.0 0.0 0.0 0.0 -0.0 0.0 -5.94964 46.497608 199.856628 83.853638 -50.783932 99.616676 9.934692 1.913645 -1.024806 -4.357919 -0.034726 -2.990668 27.790276 5.90437 -2.760886 16.792116 -3.418166 3.302511 -2.609131 -1.055462 1.275196 -36.022503 -2.075657 2.731013 6e-06 0.0 0.0 -0.180993 -0.098392 0.101548 -0.186479 -0.167959 0.156365 -0.11004 -0.040704 0.054958 -9.379299 -62.801254 12.028353 80.510078 -15.023329 -54.169601 19.748745 0.467538 0.407716 42.747379 64.769279 42.015259 17.636627 -26.322727 52.411182 -19.466661 -14.3956 29.410385 -2e-06 -8.774821 -2e-06 16.167727 -18.534538 5.997783 -0.609776 -1.795654 -3.889327 -4.807087 -11.046809 -2.937849 5e-06 -20.976011 1e-06 -5.019969 -25.033554 -4.031882 6e-06 1e-06 1e-06 -10.634531 -5.686968 -3.565587 10.573275 -17.922951 -3.1139 3e-06 -13.821209 1e-06 -0.501776 -31.181505 -4.027014 -10.945079 -59.330734 6.547239 -13.982712 -7.150194 -2.875041 13.772728 -8.401493 -3.218241 0.347736 -34.211544 0.771654 -0.963028 -17.733366 2.621021 -0.0 -0.0 -1e-06 -17.346413 -20.095211 -4.201781 21.757557 -1.638376 3.866427 1e-06 -6.338823 1e-06 -1.697586 -22.591738 -6.194006 -0.0 -5e-06 -1e-06 -159.348007 -81.360825 -11.505986 85.796288 -26.064438 -41.959824 25.60051 -0.681701 0.416433 70.156158 60.933342 79.328735 22.182123 -20.375895 49.933315 -16.701813 -16.743528 28.476524 -1e-06 -12.6906 0.0 16.414696 -18.164101 2.315117 -0.10592 -1.513856 -4.275882 -5.039041 -5.612869 -2.953555 5e-06 -11.02052 -1e-06 -6.111297 -15.89533 -3.840472 0.0 1e-06 1e-06 -10.283372 -5.680286 -4.341839 11.028294 -11.302405 -2.372631 -1.384267 -14.23858 -6.32012 -0.625437 -26.924187 -3.8276 -3.82929 -49.216904 -4.571363 -13.708527 -7.363474 -3.720939 18.141151 -14.052739 -3.242674 6e-06 -18.787271 0.0 -0.42971 -8.456041 2.555503 -0.0 -1e-06 -1e-06 -15.923536 -20.094482 -5.473585 30.41921 -7.190827 1.735926 1e-06 -8.162925 0.0 -1.8619 -22.861469 -6.167941 -0.0 -2e-06 -1e-06 157.302734 -3.290579 5.034516 71.217194 -1.489737 0.329288 -38.443722 1.971815 15.476953 -27.903118 1.931678 1.102717 -0.999998 0.0 -0.0 -71.341026 -4.624383 5.305598 127.121529 0.372554 0.312964 -55.147655 11.950223 7.694777 -31.584444 0.831774 1.225348 -1.000002 -0.0 0.0 
0.0 0.0 0.0 0.0 -0.0 0.0 -6.313776 46.525276 201.314453 82.792168 -51.661961 99.761955 9.574809 2.004051 -0.956609 -4.588634 -0.201786 -2.750839 27.528336 5.865 -2.404199 15.983419 -3.526364 3.269069 -2.653238 -0.662445 1.337582 -36.084045 -1.793806 2.516265 6e-06 -0.0 0.0 -0.206883 -0.070965 0.091101 -0.179079 -0.136827 0.149466 -0.09646 -0.018559 0.047318 -9.937712 -62.094227 12.493594 81.37764 -15.874671 -53.803921 19.289312 0.406695 0.38205 45.017685 65.887749 43.776871 17.636629 -26.322737 52.411194 -19.466656 -14.395596 29.410389 -0.0 -8.77482 -1e-06 16.098385 -18.355024 6.09227 -0.609776 -1.795654 -3.889326 -4.807089 -11.046811 -2.937849 2e-06 -20.976017 2e-06 -5.019971 -25.033556 -4.03188 6e-06 2e-06 1e-06 -10.634533 -5.686972 -3.565587 10.57327 -17.922951 -3.113898 2e-06 -13.821205 1e-06 -0.501779 -31.181505 -4.027014 -10.703872 -59.176712 6.577788 -13.982714 -7.150198 -2.875042 13.772726 -8.401493 -3.218241 0.34773 -34.211544 0.771658 -0.963029 -17.733366 2.621019 -0.0 0.0 0.0 -17.346418 -20.095219 -4.201779 21.757557 -1.638373 3.866428 1e-06 -6.338823 1e-06 -1.697591 -22.591743 -6.194004 -0.0 -5e-06 -1e-06 -158.805283 -81.269157 -11.942399 84.866554 -27.339716 -41.737885 29.292637 -1.075626 0.288741 69.119492 60.248684 80.285866 22.182108 -20.375895 49.933304 -16.701811 -16.743528 28.476522 -0.0 -12.6906 2e-06 16.443466 -18.262211 2.300527 -0.105919 -1.513855 -4.275881 -5.03904 -5.612872 -2.953555 4e-06 -11.020525 -2e-06 -6.1113 -15.895334 -3.84047 -0.0 1e-06 1e-06 -10.283369 -5.680289 -4.341837 11.028292 -11.302405 -2.372633 -1.38427 -14.238586 -6.320119 -0.625441 -26.924191 -3.827601 -3.804894 -49.392403 -4.581982 -13.708524 -7.363477 -3.720938 18.14115 -14.052738 -3.242675 3e-06 -18.787275 -1e-06 -0.429713 -8.456045 2.555503 0.0 1e-06 0.0 -15.923538 -20.094484 -5.47358 30.41921 -7.190823 1.735924 -0.0 -8.162927 1e-06 -1.861904 -22.861473 -6.167943 -0.0 -3e-06 -1e-06 157.964813 -4.477937 3.987339 69.014534 -1.75449 0.436857 -38.95343 1.642839 15.445527 -26.217236 1.88863 1.195751 -0.999996 1e-06 -0.0 -70.607674 -3.101164 4.214234 125.086708 0.43485 0.312202 -52.496532 12.821093 8.158404 -29.952538 0.78601 1.232632 -1.000002 0.0 0.0 
0.0 0.0 0.0 0.0 -0.0 0.0 -6.799854 46.609734 202.546356 82.263794 -52.33371 100.189407 9.34905 1.879435 -0.96099 -4.756066 -0.380888 -2.785671 27.167019 5.548053 -2.550773 15.424582 -2.840022 3.443322 -2.647199 -0.684261 1.224126 -35.970081 -1.571497 2.230697 6e-06 -0.0 0.0 -0.21586 -0.089261 0.100469 -0.127667 -0.156044 0.158083 -0.061168 -0.033333 0.058876 -9.621412 -61.452389 12.197683 81.709419 -16.504608 -53.19194 18.495625 0.294066 0.318437 46.786583 66.398903 44.648163 17.636633 -26.322741 52.411201 -19.466665 -14.395598 29.410389 -0.0 -8.774823 -2e-06 15.956066 -18.160892 6.099342 -0.609777 -1.795654 -3.889328 -4.807088 -11.046813 -2.93785 4e-06 -20.976021 1e-06 -5.019972 -25.033564 -4.031879 5e-06 -1e-06 -0.0 -10.634536 -5.686973 -3.565588 10.573275 -17.922958 -3.113901 2e-06 -13.821211 1e-06 -0.501778 -31.181505 -4.027016 -10.741926 -58.978096 6.798985 -13.982716 -7.150198 -2.875042 13.772731 -8.401497 -3.218241 0.347734 -34.211559 0.771656 -0.963029 -17.733372 2.621021 -1e-06 -0.0 -1e-06 -17.346422 -20.095221 -4.201782 21.757561 -1.638378 3.866428 2e-06 -6.338823 0.0 -1.69759 -22.591755 -6.194006 -0.0 -5e-06 -1e-06 -161.819412 -81.394424 -8.969873 84.470055 -28.347559 -41.625755 34.855373 -1.198575 0.110186 68.249893 59.444515 81.518715 22.182114 -20.375898 49.933327 -16.701815 -16.743526 28.47653 -2e-06 -12.6906 0.0 16.815269 -18.450678 2.15962 -0.10592 -1.513857 -4.275881 -5.03904 -5.612874 -2.953555 4e-06 -11.02052 -2e-06 -6.111298 -15.895334 -3.840472 0.0 1e-06 -0.0 -10.283371 -5.680288 -4.341839 11.028294 -11.302406 -2.372634 -1.38427 -14.238586 -6.320123 -0.625439 -26.924196 -3.827601 -3.885013 -49.653351 -4.665914 -13.708525 -7.363477 -3.720939 18.141151 -14.052739 -3.242677 5e-06 -18.787275 -2e-06 -0.429712 -8.456043 2.555504 0.0 -0.0 0.0 -15.923536 -20.094484 -5.473584 30.41921 -7.190824 1.735924 1e-06 -8.162927 1e-06 -1.861902 -22.861471 -6.167944 -1e-06 -4e-06 -2e-06 158.332367 -5.062043 3.484659 67.842583 -1.95919 0.521109 -39.776329 1.283847 14.490861 -23.987705 1.847546 1.368501 -1.0 0.0 -0.0 -69.914635 -2.2767 3.235882 123.200058 0.44336 0.313131 -49.471661 13.768577 9.47052 -29.008842 0.771676 1.229898 -1.000001 -0.0 0.0 
